<?xml version="1.0" standalone="no"?>
<!DOCTYPE svg PUBLIC "-//W3C//DTD SVG 20010904//EN"
 "http://www.w3.org/TR/2001/REC-SVG-20010904/DTD/svg10.dtd">
<svg version="1.0" xmlns="http://www.w3.org/2000/svg"
 width="735.000000pt" height="887.000000pt" viewBox="0 0 735.000000 887.000000"
 preserveAspectRatio="xMidYMid meet">

<g transform="translate(0.000000,887.000000) scale(0.100000,-0.100000)"
fill="#000000" stroke="none">
<path d="M3415 8803 c-322 -41 -671 -200 -985 -450 -108 -86 -332 -304 -421
-410 -207 -246 -430 -602 -594 -947 -185 -389 -339 -906 -431 -1441 -7 -44
-22 -132 -33 -195 -49 -280 -71 -746 -52 -1100 14 -256 30 -419 70 -716 66
-484 75 -629 46 -753 -9 -35 -40 -134 -71 -220 -69 -193 -88 -309 -80 -469 18
-342 176 -704 444 -1023 175 -208 366 -350 594 -440 116 -46 298 -75 370 -60
18 4 62 4 98 1 l65 -7 -70 -3 -70 -3 95 -8 c52 -4 183 -4 290 0 176 7 206 11
310 40 173 48 302 97 429 161 l114 58 76 -65 c194 -170 337 -229 734 -308 98
-19 182 -37 187 -40 13 -8 278 -45 324 -45 55 0 320 61 416 95 332 121 663
364 872 641 125 167 194 295 262 493 62 179 79 282 80 481 0 182 -3 207 -70
570 -18 96 -24 152 -20 195 11 114 58 341 132 637 181 729 244 1201 244 1825
0 637 -126 1294 -342 1793 -247 567 -545 959 -928 1218 -95 64 -204 119 -355
178 -494 191 -766 254 -1335 309 -143 14 -322 17 -395 8z m938 -647 c111 -28
232 -83 334 -150 73 -48 222 -174 257 -217 11 -13 40 -49 66 -79 308 -361 542
-951 641 -1617 26 -179 49 -588 49 -873 0 -399 -54 -855 -151 -1274 -16 -72
-31 -132 -34 -134 -2 -2 -23 3 -47 12 -144 53 -330 81 -478 73 -337 -19 -674
-149 -975 -376 -234 -176 -433 -378 -565 -574 -25 -36 -47 -67 -50 -67 -3 0
-13 13 -23 29 -26 45 -147 203 -208 273 -309 355 -708 598 -985 598 -109 0
-250 -31 -338 -75 -38 -19 -71 -34 -72 -32 -6 6 -24 140 -40 302 -13 127 -18
264 -18 545 -1 371 -1 378 32 615 48 345 97 550 230 952 144 432 330 816 534
1101 340 475 761 795 1223 928 239 69 451 82 618 40z m-273 -5259 c-89 -84
-260 -277 -324 -362 -81 -109 -134 -197 -218 -365 -43 -85 -78 -152 -78 -148
0 3 27 67 60 141 33 75 60 140 60 145 0 5 9 17 20 27 11 10 20 23 20 30 0 16
29 73 41 81 6 3 15 16 20 27 20 44 39 72 39 58 0 -17 11 -8 14 11 1 8 7 21 14
29 7 8 25 31 41 51 15 21 31 35 35 31 3 -3 6 1 6 10 0 9 5 19 12 23 7 5 8 3 3
-6 -5 -9 -4 -11 3 -6 7 4 12 11 12 17 0 9 218 226 257 255 39 30 25 11 -37
-49z m-2793 -429 c-3 -8 -6 -5 -6 6 -1 11 2 17 5 13 3 -3 4 -12 1 -19z m98
-338 c52 -161 107 -295 177 -434 11 -23 18 -39 15 -36 -14 13 -56 80 -62 99
-3 12 -11 19 -16 15 -5 -3 -8 -2 -7 3 5 18 -14 53 -25 47 -7 -4 -9 -4 -5 1 4
4 3 14 -3 21 -26 31 -73 141 -93 219 -2 6 -6 17 -9 25 -17 45 -27 90 -29 127
-1 23 -5 40 -10 37 -4 -3 -5 1 -3 8 3 8 -1 47 -10 87 -24 115 -16 116 15 1 15
-58 45 -157 65 -220z m215 -500 c6 -11 8 -20 6 -20 -3 0 -10 9 -16 20 -6 11
-8 20 -6 20 3 0 10 -9 16 -20z m458 -1008 c2 -7 -3 -12 -12 -12 -9 0 -16 7
-16 16 0 17 22 14 28 -4z m102 -12 c0 -5 -7 -10 -15 -10 -8 0 -15 5 -15 10 0
6 7 10 15 10 8 0 15 -4 15 -10z m90 -10 c0 -5 -7 -10 -16 -10 -8 0 -12 5 -9
10 3 6 10 10 16 10 5 0 9 -4 9 -10z"/>
</g>
</svg>
